<mxfile host="app.diagrams.net" modified="2023-07-09T02:54:55.180Z" agent="Mozilla/5.0 (Windows NT 6.1; Win64; x64) AppleWebKit/537.36 (KHTML, like Gecko) Chrome/109.0.0.0 Safari/537.36 OPR/95.0.0.0" version="21.6.1" etag="jt2bGMHnohdIm7I8JBy1" type="github">
  <diagram name="PÃ¡gina-1" id="eanKleC06x3MK8k-NGPQ">
    <mxGraphModel>
      <root>
        <mxCell id="0" />
        <mxCell id="1" parent="0" />
      </root>
    </mxGraphModel>
  </diagram>
</mxfile>
